<?xml version="1.0" encoding="UTF-8"?>
<svg width="22px" height="12px" viewBox="0 0 22 12" version="1.1" xmlns="http://www.w3.org/2000/svg" xmlns:xlink="http://www.w3.org/1999/xlink">
    <title>Fill 1</title>
    <g id="Home-page" stroke="none" stroke-width="1" fill="none" fill-rule="evenodd">
        <g id="Home-page-updated-version-Copy-2" transform="translate(-1010.000000, -3030.000000)" fill="#000020">
            <path d="M1028.58421,3034.90922 C1028.51156,3034.86259 1028.42789,3034.82714 1028.368,3034.76777 C1027.36007,3033.76903 1026.35689,3032.76569 1025.34854,3031.76746 C1025.08168,3031.50329 1024.93395,3031.19975 1025.00927,3030.82284 C1025.08501,3030.44424 1025.3023,3030.16935 1025.68003,3030.05323 C1026.07919,3029.93056 1026.43432,3030.02036 1026.73199,3030.31791 C1028.02225,3031.60756 1029.31232,3032.89735 1030.60244,3034.18714 C1030.95532,3034.53989 1031.3096,3034.8912 1031.66017,3035.24624 C1032.11032,3035.70214 1032.11491,3036.28657 1031.66407,3036.73839 C1030.02314,3038.3829 1028.38,3040.02526 1026.73532,3041.66616 C1026.39933,3042.00135 1026.00678,3042.08357 1025.62619,3041.91534 C1025.22754,3041.73916 1024.96706,3041.33045 1024.98967,3040.91266 C1025.00547,3040.62111 1025.16507,3040.40634 1025.36341,3040.20884 C1026.36336,3039.21323 1027.36026,3038.21458 1028.36195,3037.22065 C1028.42029,3037.16274 1028.51057,3037.13689 1028.58594,3037.09616 C1028.56207,3037.06198 1028.53824,3037.02789 1028.51432,3036.99376 L1028.24371,3036.99376 C1022.65767,3036.99376 1017.07153,3036.9938 1011.48544,3036.99362 C1011.29821,3036.99362 1011.11066,3036.9975 1010.92381,3036.98861 C1010.38311,3036.96276 1010.01335,3036.57972 1010.00036,3036.03907 C1009.98708,3035.487 1010.34488,3035.06542 1010.87696,3035.01195 C1010.99299,3035.00029 1011.11066,3035.00174 1011.22758,3035.00174 C1016.8995,3035.00127 1022.57147,3035.00132 1028.24338,3035.00132 L1028.51855,3035.00132 L1028.58421,3034.90922 Z" id="Fill-1"></path>
        </g>
    </g>
</svg>