<?xml version="1.0" encoding="UTF-8"?>
<svg width="34px" height="24px" viewBox="0 0 34 24" version="1.1" xmlns="http://www.w3.org/2000/svg" xmlns:xlink="http://www.w3.org/1999/xlink">
    <title>morocco copy</title>
    <g id="Home-page" stroke="none" stroke-width="1" fill="none" fill-rule="evenodd">
        <g id="morocco-copy" fill-rule="nonzero">
            <polygon id="Path" fill="#D60A2E" points="0 0.00032 33.28 0.00032 33.28 23.19936 0 23.19936"></polygon>
            <path d="M23.9008,9.91296 C23.8249237,9.68376872 23.6107046,9.52900481 23.36928,9.52896 L18.63552,9.52896 L17.17248,5.02688 C17.0974029,4.79632215 16.8824737,4.64027276 16.64,4.64027276 C16.3975263,4.64027276 16.1825971,4.79632215 16.10752,5.02688 L14.64448,9.52896 L9.91072,9.52896 C9.66926441,9.52891107 9.45496512,9.68363083 9.3790245,9.91283342 C9.30308388,10.142036 9.38260362,10.3941054 9.57632,10.53824 L13.3936,13.3792 L11.94848,17.8272 C11.8751173,18.0555364 11.9553011,18.3052403 12.1478855,18.4481769 C12.3404699,18.5911134 12.6026947,18.595546 12.8,18.4592 L16.64,15.78016 L20.48,18.4592 C20.6773477,18.5969724 20.9406561,18.5932368 21.1340159,18.4499213 C21.3273758,18.3066059 21.4075356,18.0557679 21.33312,17.82688 L19.888,13.37888 L23.70528,10.53792 C23.8980669,10.3933215 23.9768028,10.1416499 23.9008,9.91296 L23.9008,9.91296 Z M16.64,7.01216 L17.45792,9.52896 L15.82208,9.52896 L16.64,7.01216 Z M16.64,14.39904 L14.7072,12.96064 L15.45824,10.64896 L17.82176,10.64896 L18.5728,12.96064 L16.64,14.39904 Z M11.60096,10.64896 L14.28064,10.64896 L13.76,12.25504 L11.60096,10.64896 Z M14.34176,14.0848 L15.68224,15.08256 L13.52928,16.58656 L14.34176,14.0848 Z M19.74976,16.58496 L17.5968,15.08096 L18.93728,14.0832 L19.74976,16.58496 Z M19.52,12.25504 L18.99808,10.64896 L21.67776,10.64896 L19.52,12.25504 Z" id="Shape" fill="#6FA44A"></path>
        </g>
    </g>
</svg>