<?xml version="1.0" encoding="UTF-8"?>
<svg width="140px" height="51px" viewBox="0 0 140 51" version="1.1" xmlns="http://www.w3.org/2000/svg" xmlns:xlink="http://www.w3.org/1999/xlink">
    <!-- Generator: Sketch 52.6 (67491) - http://www.bohemiancoding.com/sketch -->

    <g id="Sign-in" stroke="none" stroke-width="1" fill="none" fill-rule="evenodd">
        <g id="Search-for-IA" transform="translate(-49.000000, -20.000000)">
            <g id="OIFA-Logo-Final-Copy" transform="translate(49.000000, 20.000000)">
                <path d="M75.3964948,32.4905915 C73.157457,32.4905915 71.1541581,32.0189014 69.3865979,31.0755211 C67.6640835,30.176017 66.2313696,28.8111793 65.2529897,27.1377465 C64.2657732,25.4569014 63.7721649,23.5605634 63.7721649,21.4487324 C63.7721649,19.3369014 64.2657732,17.4405634 65.2529897,15.7597183 C66.2311922,14.0870141 67.6633651,12.7227131 69.3851546,11.8233803 C71.1527148,10.88 73.1560137,10.4083099 75.3950515,10.4083099 C76.9871861,10.3946483 78.5679969,10.675734 80.0569072,11.2372394 C81.4237091,11.7428663 82.6761379,12.5134056 83.7416495,13.5042254 C84.7764127,14.4933236 85.5920032,15.6868255 86.1360825,17.0081408 C87.2949491,19.8526914 87.2949491,23.034717 86.1360825,25.8792676 C85.5920032,27.2005829 84.7764127,28.3940848 83.7416495,29.3831831 C82.6770709,30.3759016 81.425112,31.1484067 80.0583505,31.6559155 C78.5698153,32.2193817 76.9889927,32.5024181 75.3964948,32.4905915 Z M71.4043299,25.5043099 C72.4550515,26.5750704 73.7857732,27.1104507 75.3964948,27.1104507 C77.0072165,27.1104507 78.3331271,26.5779437 79.3742268,25.5129296 C80.4153265,24.4479155 80.9358763,23.0941408 80.9358763,21.4516056 C80.9358763,19.8090704 80.4153265,18.4576901 79.3742268,17.3974648 C78.3312027,16.3343662 77.0052921,15.8028169 75.3964948,15.8028169 C73.7876976,15.8028169 72.4569759,16.3353239 71.4043299,17.400338 C70.3536082,18.4672676 69.8282474,19.8167324 69.8282474,21.4487324 C69.8282474,23.0807324 70.3536082,24.4321127 71.4043299,25.5028732 L71.4043299,25.5043099 Z" id="Shape" fill="#243160" fill-rule="nonzero"></path>
                <path d="M91.4734021,31.9619155 L91.4734021,10.9369859 C93.0373209,10.9369852 94.5371014,11.5557675 95.6424175,12.6570462 C96.7477335,13.758325 97.3679239,15.2517701 97.3663918,16.8084507 L97.3663946,31.9619155 L91.4734021,31.9619155 Z" id="Path" fill="#243160"></path>
                <path d="M116.389072,16.1849577 L108.817526,16.1849577 L108.817526,19.5279718 L115.608247,19.5279718 L115.608247,24.6006761 L108.817526,24.6006761 L108.817526,31.9619155 L102.954845,31.9619155 L102.954845,10.9369859 L111.115258,10.9369859 C114.027905,10.9369859 116.389072,13.2872261 116.389072,16.1863944 L116.389072,16.1849577 Z" id="Path" fill="#243160"></path>
                <path d="M133.512371,31.9619155 L132.349072,28.5456338 L124.861237,28.5456338 L123.706598,31.9619155 L117.470103,31.9619155 L125.763299,10.9355493 L127.551546,10.9355493 C129.906279,10.9356615 132.024096,12.3616722 132.900412,14.5371549 L139.919175,31.9619155 L133.512371,31.9619155 Z M130.934639,24.0145352 L128.592165,17.5037746 L126.282887,24.0145352 L130.934639,24.0145352 Z" id="Shape" fill="#243160" fill-rule="nonzero"></path>
                <path d="M65.674433,40.4480282 C65.4239325,40.4478135 65.1758741,40.399017 64.9441237,40.3043662 C64.7290028,40.2186223 64.5328622,40.0917209 64.3668041,39.9308451 C64.2009483,39.767239 64.0703192,39.5717133 63.9828866,39.3561972 C63.7957122,38.9034016 63.7957122,38.395359 63.9828866,37.9425634 C64.0703551,37.7270661 64.2009796,37.5315472 64.3668041,37.3679155 C64.5331634,37.2074153 64.7292254,37.0805647 64.9441237,36.9943944 C65.4123915,36.8126925 65.9321446,36.8126925 66.4004124,36.9943944 C66.837983,37.1626855 67.1859759,37.503867 67.3616495,37.9368169 C67.5472882,38.3909079 67.5472882,38.8992329 67.3616495,39.3533239 C67.185829,39.7861763 66.8378872,40.1273077 66.4004124,40.2957465 C66.1706707,40.393016 65.9240725,40.4447425 65.674433,40.4480282 Z M64.9037113,39.4423944 C65.105301,39.6496573 65.3846891,39.7637076 65.674433,39.7570141 C65.9620138,39.764253 66.2394762,39.6511762 66.4393814,39.4452676 C66.8487663,39.0077971 66.8487663,38.3297522 66.4393814,37.8922817 C66.2391254,37.6870503 65.9617641,37.5745356 65.674433,37.5819718 C65.3849705,37.5752541 65.10575,37.6887155 64.9037113,37.8951549 C64.487671,38.3283297 64.487671,39.0106562 64.9037113,39.443831 L64.9037113,39.4423944 Z" id="Shape" fill="#243160" fill-rule="nonzero"></path>
                <path d="M69.4096907,36.9484225 C69.6251366,36.9456132 69.8377442,36.9975303 70.0274227,37.0992676 C70.207883,37.1979381 70.3576581,37.3440384 70.4604124,37.5216338 C70.5678103,37.704573 70.6231895,37.9131462 70.6206186,38.1250141 C70.6291984,38.4419142 70.5028669,38.7476721 70.2727835,38.9668732 C70.0412888,39.1901316 69.7290038,39.3108411 69.4068041,39.3016056 L68.8294845,39.3016056 L68.8294845,40.3690141 L68.0861856,40.3690141 L68.0861856,36.9484225 L69.4096907,36.9484225 Z M69.3764948,38.6177746 C69.5098023,38.6213117 69.6385274,38.5692266 69.7315464,38.4741127 C69.9128286,38.2736053 69.9128286,37.9692398 69.7315464,37.7687324 C69.6381839,37.6732453 69.508856,37.6211281 69.3750515,37.6250704 L68.8280412,37.6250704 L68.8280412,38.6062817 L69.3764948,38.6177746 Z" id="Shape" fill="#243160" fill-rule="nonzero"></path>
                <polygon id="Path" fill="#243160" points="71.8820619 39.6837465 73.2575258 39.6837465 73.2575258 40.3690141 71.1387629 40.3690141 71.1387629 36.9484225 73.205567 36.9484225 73.205567 37.6394366 71.8835052 37.6394366 71.8835052 38.3160845 73.0771134 38.3160845 73.0771134 38.9869859 71.8835052 38.9869859"></polygon>
                <polygon id="Path" fill="#243160" points="76.0661856 36.9484225 76.7993814 36.9484225 76.7993814 40.3690141 76.1787629 40.3690141 74.6185567 38.2284507 74.6185567 40.3690141 73.8882474 40.3690141 73.8882474 36.9484225 74.5608247 36.9484225 76.0705155 39.0387042"></polygon>
                <polygon id="Path" fill="#243160" points="78.7536082 40.3690141 78.7536082 36.9484225 79.4969072 36.9484225 79.4969072 40.3690141"></polygon>
                <polygon id="Path" fill="#243160" points="82.4672165 36.9484225 83.1960825 36.9484225 83.1960825 40.3690141 82.5725773 40.3690141 81.0123711 38.2284507 81.0123711 40.3690141 80.2820619 40.3690141 80.2820619 36.9484225 80.9546392 36.9484225 82.4643299 39.0387042"></polygon>
                <polygon id="Path" fill="#243160" points="86.1635052 36.9484225 86.8923711 36.9484225 86.8923711 40.3690141 86.2717526 40.3690141 84.7115464 38.2284507 84.7115464 40.3690141 83.9812371 40.3690141 83.9812371 36.9484225 84.6538144 36.9484225 86.1635052 39.0387042"></polygon>
                <path d="M89.3113402,40.4480282 C89.0608398,40.4478135 88.8127813,40.399017 88.5810309,40.3043662 C88.3659101,40.2186223 88.1697694,40.0917209 88.0037113,39.9308451 C87.8378555,39.767239 87.7072264,39.5717133 87.6197938,39.3561972 C87.4326194,38.9034016 87.4326194,38.395359 87.6197938,37.9425634 C87.7072623,37.7270661 87.8378869,37.5315472 88.0037113,37.3679155 C88.1700706,37.2074153 88.3661327,37.0805647 88.5810309,36.9943944 C89.0492987,36.8126925 89.5690518,36.8126925 90.0373196,36.9943944 C90.4748902,37.1626855 90.8228831,37.503867 90.9985567,37.9368169 C91.1841954,38.3909079 91.1841954,38.8992329 90.9985567,39.3533239 C90.8227362,39.7861763 90.4747944,40.1273077 90.0373196,40.2957465 C89.8075779,40.393016 89.5609797,40.4447425 89.3113402,40.4480282 Z M88.5406186,39.4423944 C88.7422083,39.6496573 89.0215964,39.7637076 89.3113402,39.7570141 C89.598921,39.764253 89.8763834,39.6511762 90.0762887,39.4452676 C90.4856735,39.0077971 90.4856735,38.3297522 90.0762887,37.8922817 C89.8760326,37.6870503 89.5986713,37.5745356 89.3113402,37.5819718 C89.0218777,37.5752541 88.7426573,37.6887155 88.5406186,37.8951549 C88.1245782,38.3283297 88.1245782,39.0106562 88.5406186,39.443831 L88.5406186,39.4423944 Z" id="Shape" fill="#243160" fill-rule="nonzero"></path>
                <polygon id="Path" fill="#243160" points="93.7610309 36.9484225 94.5736082 36.9484225 93.2746392 40.3733239 92.5717526 40.3733239 91.2251546 36.9484225 92.0478351 36.9484225 92.9138144 39.3705634"></polygon>
                <path d="M96.9940206,40.3690141 L96.754433,39.719662 L95.383299,39.719662 L95.1480412,40.3690141 L94.3585567,40.3690141 L95.7065979,36.9484225 L96.4080412,36.9484225 L97.8008247,40.3690141 L96.9940206,40.3690141 Z M96.0659794,37.8491831 L95.6156701,39.0760563 L96.5191753,39.0760563 L96.0659794,37.8491831 Z" id="Shape" fill="#243160" fill-rule="nonzero"></path>
                <polygon id="Path" fill="#243160" points="100.280412 36.9484225 100.280412 37.6394366 99.3148454 37.6394366 99.3148454 40.3690141 98.5715464 40.3690141 98.5715464 37.6394366 97.6160825 37.6394366 97.6160825 36.9512958"></polygon>
                <polygon id="Path" fill="#243160" points="100.778351 40.3690141 100.778351 36.9484225 101.521649 36.9484225 101.521649 40.3690141"></polygon>
                <path d="M103.944948,40.4480282 C103.694448,40.4478135 103.44639,40.399017 103.214639,40.3043662 C102.999518,40.2186223 102.803378,40.0917209 102.63732,39.9308451 C102.471464,39.767239 102.340835,39.5717133 102.253402,39.3561972 C102.066228,38.9034016 102.066228,38.395359 102.253402,37.9425634 C102.340871,37.7270661 102.471495,37.5315472 102.63732,37.3679155 C102.803679,37.2074153 102.999741,37.0805647 103.214639,36.9943944 C103.682907,36.8126925 104.20266,36.8126925 104.670928,36.9943944 C105.108498,37.1626855 105.456491,37.503867 105.632165,37.9368169 C105.817804,38.3909079 105.817804,38.8992329 105.632165,39.3533239 C105.456344,39.7861763 105.108403,40.1273077 104.670928,40.2957465 C104.441186,40.393016 104.194588,40.4447425 103.944948,40.4480282 Z M103.174227,39.4423944 C103.375816,39.6496573 103.655205,39.7637076 103.944948,39.7570141 C104.232529,39.764253 104.509992,39.6511762 104.709897,39.4452676 C105.119282,39.0077971 105.119282,38.3297522 104.709897,37.8922817 C104.509641,37.6870503 104.23228,37.5745356 103.944948,37.5819718 C103.655486,37.5752541 103.376266,37.6887155 103.174227,37.8951549 C102.758186,38.3283297 102.758186,39.0106562 103.174227,39.443831 L103.174227,39.4423944 Z" id="Shape" fill="#243160" fill-rule="nonzero"></path>
                <polygon id="Path" fill="#243160" points="108.536082 36.9484225 109.264948 36.9484225 109.264948 40.3690141 108.64433 40.3690141 107.084124 38.2284507 107.084124 40.3690141 106.353814 40.3690141 106.353814 36.9484225 107.026392 36.9484225 108.536082 39.0387042"></polygon>
                <polygon id="Path" fill="#243160" points="113.27732 37.6394366 111.966804 37.6394366 111.966804 38.3922254 113.150309 38.3922254 113.150309 39.0631268 111.966804 39.0631268 111.966804 40.3690141 111.223505 40.3690141 111.223505 36.9484225 113.27732 36.9484225"></polygon>
                <path d="M115.452371,40.4480282 C115.201871,40.4478135 114.953812,40.399017 114.722062,40.3043662 C114.506941,40.2186223 114.3108,40.0917209 114.144742,39.9308451 C113.978886,39.767239 113.848257,39.5717133 113.760825,39.3561972 C113.57365,38.9034016 113.57365,38.395359 113.760825,37.9425634 C113.848293,37.7270661 113.978918,37.5315472 114.144742,37.3679155 C114.311102,37.2074153 114.507164,37.0805647 114.722062,36.9943944 C115.19033,36.8126925 115.710083,36.8126925 116.178351,36.9943944 C116.615921,37.1626855 116.963914,37.503867 117.139588,37.9368169 C117.325226,38.3909079 117.325226,38.8992329 117.139588,39.3533239 C116.963767,39.7861763 116.615825,40.1273077 116.178351,40.2957465 C115.948609,40.393016 115.702011,40.4447425 115.452371,40.4480282 Z M114.681649,39.4423944 C114.883239,39.6496573 115.162627,39.7637076 115.452371,39.7570141 C115.739952,39.764253 116.017414,39.6511762 116.21732,39.4452676 C116.626704,39.0077971 116.626704,38.3297522 116.21732,37.8922817 C116.017064,37.6870503 115.739702,37.5745356 115.452371,37.5819718 C115.162909,37.5752541 114.883688,37.6887155 114.681649,37.8951549 C114.265609,38.3283297 114.265609,39.0106562 114.681649,39.443831 L114.681649,39.4423944 Z" id="Shape" fill="#243160" fill-rule="nonzero"></path>
                <path d="M119.754845,40.3690141 L119.088041,39.2053521 L118.610309,39.2053521 L118.610309,40.3690141 L117.86701,40.3690141 L117.86701,36.9484225 L119.256907,36.9484225 C119.577116,36.9365365 119.888844,37.0523763 120.122887,37.2702254 C120.349276,37.4795556 120.473947,37.7759147 120.464948,38.0833521 C120.4682,38.2931121 120.410025,38.4992765 120.297526,38.6766761 C120.185161,38.850693 120.026199,38.9900116 119.838557,39.0789296 L120.599175,40.3718873 L119.754845,40.3690141 Z M118.600206,37.6293803 L118.600206,38.5157746 L119.196289,38.5157746 C119.329486,38.5231969 119.460383,38.478908 119.561443,38.3922254 C119.650973,38.310628 119.700038,38.1940469 119.69567,38.0732958 C119.699686,37.952191 119.650715,37.8353097 119.561443,37.7529296 C119.460307,37.6663793 119.329465,37.6221091 119.196289,37.6293803 L118.600206,37.6293803 Z" id="Shape" fill="#243160" fill-rule="nonzero"></path>
                <path d="M124.441237,40.3690141 L124.201649,39.719662 L122.830515,39.719662 L122.595258,40.3690141 L121.805773,40.3690141 L123.155258,36.9441127 L123.850928,36.9441127 L125.246598,40.3690141 L124.441237,40.3690141 Z M123.513196,37.8491831 L123.062887,39.0760563 L123.966392,39.0760563 L123.513196,37.8491831 Z" id="Shape" fill="#243160" fill-rule="nonzero"></path>
                <polygon id="Path" fill="#243160" points="127.737732 37.6394366 126.427216 37.6394366 126.427216 38.3922254 127.603505 38.3922254 127.603505 39.0631268 126.42 39.0631268 126.42 40.3690141 125.683918 40.3690141 125.683918 36.9484225 127.737732 36.9484225"></polygon>
                <path d="M130.201443,40.3690141 L129.530309,39.2010423 L129.052577,39.2010423 L129.052577,40.3690141 L128.309278,40.3690141 L128.309278,36.9484225 L129.699175,36.9484225 C130.019384,36.9365365 130.331112,37.0523763 130.565155,37.2702254 C130.791544,37.4795556 130.916215,37.7759147 130.907216,38.0833521 C130.910468,38.2931121 130.852293,38.4992765 130.739794,38.6766761 C130.627429,38.850693 130.468468,38.9900116 130.280825,39.0789296 L131.041443,40.3718873 L130.201443,40.3690141 Z M129.046804,37.6293803 L129.046804,38.5157746 L129.642887,38.5157746 C129.776084,38.5231969 129.906981,38.478908 130.008041,38.3922254 C130.097571,38.310628 130.146636,38.1940469 130.142268,38.0732958 C130.146284,37.952191 130.097313,37.8353097 130.008041,37.7529296 C129.906905,37.6663793 129.776063,37.6221091 129.642887,37.6293803 L129.046804,37.6293803 Z" id="Shape" fill="#243160" fill-rule="nonzero"></path>
                <polygon id="Path" fill="#243160" points="131.558144 40.3690141 131.558144 36.9484225 132.301443 36.9484225 132.301443 40.3690141"></polygon>
                <path d="M134.66701,40.4480282 C134.42588,40.4474722 134.187329,40.3986147 133.965567,40.3043662 C133.753573,40.2191611 133.561113,40.0920997 133.399794,39.9308451 C133.239168,39.7680804 133.112598,39.5751983 133.027423,39.3633803 C132.935425,39.1400591 132.888822,38.9007986 132.890309,38.6594366 C132.888555,38.4161884 132.935153,38.1749969 133.027423,37.9497465 C133.111752,37.7353697 133.238366,37.5399772 133.399794,37.3750986 C133.561439,37.2142409 133.753813,37.0872363 133.965567,37.0015775 C134.187329,36.9073289 134.42588,36.8584715 134.66701,36.8579155 C135.483355,36.8432075 136.189419,37.4211577 136.332577,38.2212676 L135.586392,38.2212676 C135.522173,38.0282788 135.399066,37.8600402 135.234227,37.74 C135.06898,37.6224424 134.870089,37.5609859 134.66701,37.5647324 C134.390746,37.5586231 134.125202,37.6711531 133.938144,37.8736056 C133.743182,38.0832021 133.639415,38.3610436 133.649485,38.646507 C133.63914,38.9307275 133.743025,39.2073316 133.938144,39.4150986 C134.125682,39.6167094 134.391042,39.7286388 134.66701,39.7225352 C134.878317,39.7274802 135.085006,39.6605916 135.25299,39.5329014 C135.42051,39.4024194 135.540212,39.2206686 135.593608,39.0157183 L136.344124,39.0157183 C136.280417,39.4151124 136.075719,39.7788067 135.766804,40.0414648 C135.463061,40.3072484 135.071415,40.4520293 134.66701,40.4480282 Z" id="Path" fill="#243160"></path>
                <path d="M139.051753,40.3690141 L138.812165,39.719662 L137.441031,39.719662 L137.205773,40.3690141 L136.416289,40.3690141 L137.765773,36.9441127 L138.467216,36.9441127 L139.858557,40.3690141 L139.051753,40.3690141 Z M138.123711,37.8491831 L137.674845,39.0746197 L138.572577,39.0746197 L138.123711,37.8491831 Z" id="Shape" fill="#243160" fill-rule="nonzero"></path>
                <path d="M35.1775258,46.8955775 C43.4591753,36.8967042 56.9554639,32.9689859 47.5004124,15.8746479 C41.1859794,4.46501408 25.562268,-5.62867606 16.3352577,3.61309859 C4.47134021,15.504 -3.23298969,22.1857183 1.97154639,34.1369577 C7.17608247,46.0881972 26.8540206,56.9476056 35.1775258,46.8955775 Z" id="cercle" fill="#E55831" opacity="0.9"></path>
                <path d="M2.73938144,18.2924789 C7.79092784,30.2365352 -2.15484536,43.5927887 16.8057732,48.5678028 C29.4591753,51.8892676 54.9752577,44.3053521 49.3276289,30.3758873 C43.0261856,14.8359718 46.4208247,10.2488451 34.9278351,3.16056338 C23.8028866,-3.69929577 -2.85917526,5.03822535 2.73938144,18.2924789 Z" id="cercle-2" fill="#FCC657" opacity="0.9"></path>
                <path d="M48.6160825,23.8636901 C42.1731959,12.606338 43.2874227,-1.34898592 23.8707216,1.36909859 C10.9113402,3.1835493 -4.12927835,14.1320282 1.27154639,25.9999437 C8.21525773,41.2669014 11.7484536,50.8089296 24.8218557,50.2199155 C37.8952577,49.6309014 55.0936082,35.1828169 48.6160825,23.8636901 Z" id="cercle-3" fill="#0FB8DA" opacity="0.9"></path>
                <path d="M49.1457732,25.4870704 C43.2282474,13.9495775 38.5360825,1.90064789 25.4496907,1.90064789 C12.363299,1.90064789 -0.769278351,12.7040282 1.74783505,25.4870704 C4.58103093,39.8446479 12.3575258,49.073493 25.4439175,49.073493 C38.5303093,49.073493 55.1008247,37.0849014 49.1457732,25.4870704 Z" id="cercle-4" fill="#243160"></path>
                <path d="M30.2082474,25.1911268 C30.1756565,25.3344321 30.185176,25.484045 30.2356701,25.6221127 L31.3758763,28.5327042 C31.5527375,28.9815102 31.5430406,29.4818994 31.3489227,29.9235827 C31.1548048,30.3652659 30.7922007,30.7119862 30.3410309,30.8873239 L29.4981443,31.2148732 L29.4981443,33.5235211 C29.4974084,34.0956945 29.306044,34.6514681 28.9540206,35.1038028 L29.0665979,35.7732676 C29.076701,35.8048732 29.0839175,35.8307324 29.091134,35.8580282 C29.0983505,35.8853239 29.1026804,35.9169296 29.105567,35.9370423 C29.1084536,35.9571549 29.1214433,35.975831 29.1272165,35.994507 L29.134433,36.0160563 C29.287986,36.449061 29.7450146,36.6969702 30.1938144,36.5907042 L38.0843299,34.6182254 L38.1709278,34.5866197 C38.1988178,34.5784232 38.2262753,34.5688336 38.2531959,34.5578873 C38.277732,34.547831 38.3008247,34.5334648 38.3253608,34.5205352 C38.3541802,34.5053336 38.3821272,34.4885471 38.4090722,34.4702535 C38.4285771,34.4563622 38.447364,34.4414981 38.4653608,34.4257183 C38.4942454,34.4024603 38.5217165,34.377515 38.5476289,34.3510141 L38.5779381,34.3165352 C38.6067776,34.2829215 38.6332987,34.2474038 38.6573196,34.2102254 L38.6775258,34.1757465 C38.7003121,34.1360865 38.7200921,34.0947886 38.736701,34.0521972 C38.7566341,33.9979938 38.7720807,33.9422588 38.7828866,33.8855493 C38.7916877,33.8280371 38.7955505,33.7698832 38.794433,33.7117183 L38.794433,33.6125915 L38.4494845,31.5366761 C38.2812588,30.5105937 38.5605591,29.4617937 39.2173196,28.6533803 C40.491458,27.0863697 41.1832531,25.1296879 41.1758763,23.1137746 C41.1756231,20.59463 40.0979901,18.1947071 38.2125107,16.5142653 C36.3270312,14.8338234 33.8120103,14.0317776 31.2964948,14.3087324 C29.8719132,14.462958 28.5070858,14.9626573 27.3216495,15.7640282 C28.9796171,17.372418 30.0448143,19.4899169 30.3453608,21.7748451 C30.4885224,22.9133703 30.4421972,24.0675972 30.2082474,25.1911268 Z" id="Path" fill="#FFFFFF"></path>
                <ellipse id="Oval" fill="#FCC657" cx="26.1684536" cy="22.8264507" rx="1.16185567" ry="1.15647887"></ellipse>
                <path d="M21.1991753,12.8577465 C17.0341826,12.3998939 13.0024748,14.4855535 10.9854247,18.1414645 C8.96837453,21.7973754 9.36357099,26.3029063 11.9865979,29.5555775 C12.3827565,30.0406771 12.5523302,30.6708921 12.4527835,31.2881408 L12.1063918,33.3439437 C12.0937123,33.4266856 12.0869599,33.5102202 12.0861856,33.5939155 L12.0861856,33.6585634 C12.082414,33.793057 12.0901395,33.9276264 12.1092784,34.0608169 L12.1179381,34.1182817 C12.1408004,34.2496623 12.1745937,34.3789241 12.2189691,34.5047324 L12.2406186,34.5621972 C12.2832752,34.6732 12.3344217,34.7807831 12.3936082,34.884 C12.4109278,34.914169 12.4282474,34.944338 12.4484536,34.9773803 C12.5043392,35.0651858 12.5660575,35.1491758 12.6331959,35.2287887 C12.6649485,35.2675775 12.696701,35.3049296 12.7356701,35.3451549 C12.8012604,35.4127082 12.8706504,35.4765009 12.9435052,35.5362254 C12.991134,35.5750141 13.0402062,35.6138028 13.0878351,35.6482817 C13.1578958,35.696866 13.2306577,35.7414722 13.3057732,35.7818873 C13.3692784,35.8163662 13.4327835,35.8494085 13.5020619,35.8795775 C13.5713402,35.9097465 13.6463918,35.9370423 13.7127835,35.9571549 C13.7629818,35.9779705 13.8145863,35.9952524 13.8672165,36.0088732 L21.7865979,37.9885352 C21.9701993,38.0343371 22.1587615,38.0574967 22.3480412,38.057493 C23.3477491,38.053494 24.2379744,37.4269606 24.5750515,36.4901408 L24.5880412,36.4542254 C24.6111443,36.3986035 24.6304325,36.3414866 24.6457732,36.2832676 C24.6543017,36.2497213 24.66057,36.2156455 24.6645361,36.1812676 L24.6775258,36.1338592 C24.1593117,35.9829196 23.6973957,35.6830641 23.3496907,35.2718873 L23.2659794,35.7732676 C23.2573196,35.8005634 23.2486598,35.8307324 23.2342268,35.892507 C23.2342268,35.9083099 23.2342268,35.9226761 23.2270103,35.9399155 L23.2125773,35.9772676 L23.2125773,35.9873239 L23.2125773,35.9959437 L23.2125773,36.0146197 C23.0595672,36.4480843 22.6020898,36.6962371 22.1531959,36.5892676 L14.2626804,34.6167887 C14.2352577,34.6052958 14.2063918,34.5952394 14.1746392,34.5851831 C14.1428866,34.5751268 14.1197938,34.5679437 14.0952577,34.5578873 C14.0707216,34.547831 14.0461856,34.5334648 14.0187629,34.5190986 C13.989965,34.5038591 13.9620201,34.4870738 13.9350515,34.4688169 C13.9162887,34.4558873 13.8989691,34.4415211 13.8845361,34.4285915 C13.8562498,34.4056804 13.8292665,34.3812201 13.8037113,34.3553239 L13.7661856,34.3107887 C13.7399972,34.2798414 13.7158898,34.2472071 13.6940206,34.2130986 L13.6723711,34.1757465 C13.6508263,34.1388496 13.6320136,34.1004378 13.6160825,34.0608169 L13.6045361,34.026338 C13.5861779,33.9721695 13.5731274,33.9163603 13.565567,33.8596901 C13.558975,33.8149875 13.5560787,33.769822 13.5569072,33.7246479 L13.9076289,31.5366761 C14.0756147,30.5110524 13.796318,29.4627888 13.1397938,28.6548169 C11.8656554,27.0878063 11.1738603,25.1311245 11.1812371,23.1152113 C11.1814903,20.5960666 12.2591233,18.1961437 14.1446027,16.5157019 C16.0300822,14.83526 18.5451032,14.0332142 21.0606186,14.310169 C22.4388415,14.4612618 23.7612033,14.9364484 24.9185567,15.696507 C24.9560825,15.7209296 24.9979381,15.7396056 25.0354639,15.7654648 C25.2505155,15.5557183 25.4771134,15.3589014 25.7080412,15.1692676 C25.8624742,15.0428451 26.0197938,14.9164225 26.1814433,14.7971831 C24.7230141,13.7220868 23.003409,13.0526998 21.1991753,12.8577465 Z" id="Path" fill="#FCC657"></path>
                <path d="M28.0389691,33.5177746 L28.0389691,30.2135493 L29.8113402,29.5254085 C29.9967274,29.4520292 30.0886287,29.2441293 30.017732,29.058507 L28.8818557,26.1464789 C28.7290367,25.7473967 28.6954534,25.3128343 28.7851546,24.8951831 C28.9842442,23.9247074 29.0208195,22.9281512 28.8934021,21.9458028 C28.6256596,19.9242438 27.6615588,18.0577709 26.165567,16.6647887 C24.6719992,18.0582647 23.7100151,19.9240817 23.4435052,21.9443662 C23.3161684,22.9262391 23.3527437,23.9223096 23.5517526,24.8923099 C23.641573,25.3104313 23.6079901,25.7454869 23.4550515,26.1450423 L22.3148454,29.0570704 C22.2439486,29.2426927 22.3358499,29.4505926 22.5212371,29.5239718 L24.2936082,30.2121127 L24.2936082,33.516338 C24.2936082,34.1510766 24.8105578,34.6656338 25.4482474,34.6656338 L26.8915464,34.6656338 C27.5258535,34.6616881 28.0381886,34.1491582 28.0389691,33.5177746 Z M26.1626804,23.9843662 C25.5249908,23.9843662 25.0080412,23.469809 25.0080412,22.8350704 C25.0080412,22.2003319 25.5249908,21.6857746 26.1626804,21.6857746 C26.80037,21.6857746 27.3173196,22.2003319 27.3173196,22.8350704 C27.3165339,23.467011 26.8033248,23.9797704 26.1684536,23.9829296 L26.1626804,23.9843662 Z" id="rocket" fill="#FFFFFF" fill-rule="nonzero"></path>
            </g>
        </g>
    </g>
</svg>