<?xml version="1.0" encoding="UTF-8"?>
<svg width="140px" height="51px" viewBox="0 0 140 51" version="1.1" xmlns="http://www.w3.org/2000/svg" xmlns:xlink="http://www.w3.org/1999/xlink">
    <!-- Generator: Sketch 52.6 (67491) - http://www.bohemiancoding.com/sketch -->

    <g id="Oifa-seeker" stroke="none" stroke-width="1" fill="none" fill-rule="evenodd">
        <g id="OIFA-Logo-blanc-Copy-2">
            <path d="M75.3616099,32.5554775 C73.1192982,32.5554775 71.1129687,32.0851124 69.3426213,31.144382 C67.618274,30.2468253 66.1841095,28.8853513 65.2047472,27.216236 C64.2165119,25.5391573 63.7223942,23.647191 63.7223942,21.5403371 C63.7223942,19.4334831 64.2165119,17.5415169 65.2047472,15.8644382 C66.1841095,14.1953228 67.618274,12.8338489 69.3426213,11.9362921 C71.1129687,10.9955618 73.1192982,10.5251966 75.3616099,10.5251966 C76.9563575,10.5112178 78.5398124,10.7915197 80.0311662,11.3517978 C81.3969561,11.8596811 82.6476798,12.630946 83.7110423,13.6210112 C84.7469413,14.6078309 85.5633685,15.7984609 86.1079463,17.1165169 C87.268333,19.9540058 87.268333,23.1281009 86.1079463,25.9655899 C85.5635446,27.2841583 84.7471074,28.4752909 83.7110423,29.4625281 C82.6449956,30.4530408 81.3912503,31.223865 80.0224974,31.730309 C78.5337708,32.2890493 76.9533567,32.5688476 75.3616099,32.5554775 Z M71.3638803,25.5859551 C72.4166495,26.6537079 73.749226,27.1875843 75.3616099,27.1875843 C76.9739938,27.1875843 78.3017544,26.6560955 79.3448916,25.593118 C80.3870657,24.5301404 80.9081527,23.179691 80.9081527,21.5417697 C80.9081527,19.9038483 80.3865841,18.556264 79.3434469,17.4990169 C78.3060888,16.4398596 76.9788098,15.9102809 75.3616099,15.9102809 C73.74441,15.9102809 72.4118335,16.4398596 71.3638803,17.4990169 C70.3111111,18.5619944 69.7847265,19.9076685 69.7847265,21.5360393 C69.7847265,23.1644101 70.3111111,24.514382 71.3638803,25.5859551 Z" id="Shape" fill="#FDFDFD" fill-rule="nonzero"></path>
            <path d="M91.4608875,32.0297191 L91.4608875,11.0523876 C94.7196525,11.0523876 97.3614035,13.6718237 97.3614035,16.9030618 L97.3614035,32.0297191 L91.4608875,32.0297191 Z" id="Path" fill="#FDFDFD"></path>
            <path d="M116.413829,16.2899157 L108.830134,16.2899157 L108.830134,19.6249719 L115.630753,19.6249719 L115.630753,24.6862921 L108.830134,24.6862921 L108.830134,32.0297191 L102.959959,32.0297191 L102.959959,11.0523876 L111.133127,11.0523876 C112.533656,11.0523876 113.876823,11.6040461 114.867147,12.5860045 C115.857471,13.5679629 116.413829,14.8997843 116.413829,16.2884831 L116.413829,16.2899157 Z" id="Path" fill="#FDFDFD"></path>
            <path d="M133.556244,32.0297191 L132.400413,28.6216011 L124.901961,28.6216011 L123.731682,32.0297191 L117.495975,32.0297191 L125.802064,11.0523876 L127.592157,11.0523876 C129.949874,11.0543315 132.070005,12.4762228 132.949432,14.645309 L139.978328,32.0282865 L133.556244,32.0297191 Z M130.974407,24.1017978 L128.629515,17.6064607 L126.317853,24.1017978 L130.974407,24.1017978 Z" id="Shape" fill="#FDFDFD" fill-rule="nonzero"></path>
            <path d="M65.6251806,40.4948596 C65.3744216,40.4946455 65.1261072,40.445986 64.8941176,40.3516011 C64.6762033,40.2669283 64.4773384,40.1403403 64.3089783,39.9791292 C64.1429514,39.8159827 64.0121875,39.6210063 63.9246646,39.4060955 C63.7369005,38.9541534 63.7369005,38.4469421 63.9246646,37.995 C64.0122592,37.7801268 64.143014,37.5851639 64.3089783,37.4219663 C64.4776667,37.2611672 64.6764444,37.1346347 64.8941176,37.0494944 C65.3628687,36.8683029 65.8831581,36.8683029 66.3519092,37.0494944 C66.7898355,37.21746 67.1381363,37.5576332 67.3141383,37.9892697 C67.5003608,38.4425048 67.5003608,38.9499952 67.3141383,39.4032303 C67.1379896,39.8347697 66.7897397,40.174893 66.3519092,40.3430056 C66.1219193,40.4399667 65.8750736,40.4915465 65.6251806,40.4948596 Z M64.8536636,39.4920506 C65.0555621,39.6985837 65.3351705,39.8122859 65.6251806,39.8057865 C65.9135562,39.8134097 66.1919087,39.7006183 66.3923633,39.4949157 C66.8030685,39.0584732 66.8030685,38.3813021 66.3923633,37.9448596 C66.1917051,37.7394553 65.9134908,37.6267199 65.6251806,37.6339888 C65.3354194,37.6272899 65.0559108,37.7404326 64.8536636,37.9462921 C64.437931,38.378543 64.437931,39.0583671 64.8536636,39.490618 L64.8536636,39.4920506 Z" id="Shape" fill="#FDFDFD" fill-rule="nonzero"></path>
            <path d="M69.3642931,37.0036517 C69.5809368,37.0003607 69.7948199,37.0521468 69.9855521,37.154073 C70.1661541,37.2525258 70.3160693,37.3982016 70.4189886,37.5752528 C70.5264974,37.7576781 70.5819338,37.9656655 70.5793602,38.1769382 C70.5879488,38.4929482 70.461487,38.7978472 70.2311662,39.0164326 C69.999579,39.2394473 69.6870047,39.3603215 69.3642931,39.3516573 L68.7863777,39.3516573 L68.7863777,40.4203652 L68.0408669,40.4203652 L68.0408669,37.0036517 L69.3642931,37.0036517 Z M69.331063,38.6697472 C69.464508,38.6732743 69.5933659,38.6213355 69.6864809,38.5264888 C69.8679502,38.3265446 69.8679502,38.023034 69.6864809,37.8230899 C69.5930221,37.727871 69.4635607,37.6759002 69.3296182,37.6798315 L68.7820433,37.6798315 L68.7820433,38.6597191 L69.331063,38.6697472 Z" id="Shape" fill="#FDFDFD" fill-rule="nonzero"></path>
            <polygon id="Path" fill="#FDFDFD" points="71.8421053 39.7327247 73.2189886 39.7327247 73.2189886 40.4203652 71.0965944 40.4203652 71.0965944 37.0036517 73.1640867 37.0036517 73.1640867 37.6869944 71.8392157 37.6869944 71.8392157 38.3617416 73.0340557 38.3617416 73.0340557 39.0307584 71.8392157 39.0307584"></polygon>
            <polygon id="Path" fill="#FDFDFD" points="76.0319917 37.0036517 76.7616099 37.0036517 76.7616099 40.4203652 76.1403509 40.4203652 74.5785346 38.2858146 74.5785346 40.4203652 73.8474716 40.4203652 73.8474716 37.0036517 74.520743 37.0036517 76.0334365 39.0880618"></polygon>
            <polygon id="Path" fill="#FDFDFD" points="78.7236326 40.4203652 78.7236326 37.0036517 79.4691434 37.0036517 79.4691434 40.4203652"></polygon>
            <polygon id="Path" fill="#FDFDFD" points="82.4425181 37.0036517 83.1721362 37.0036517 83.1721362 40.4203652 82.5552116 40.4203652 80.9876161 38.2858146 80.9876161 40.4203652 80.2565531 40.4203652 80.2565531 37.0036517 80.9298246 37.0036517 82.4425181 39.0880618"></polygon>
            <polygon id="Path" fill="#FDFDFD" points="86.144066 37.0036517 86.8736842 37.0036517 86.8736842 40.4203652 86.2509804 40.4203652 84.6891641 38.2858146 84.6891641 40.4203652 83.9581011 40.4203652 83.9581011 37.0036517 84.6313725 37.0036517 86.144066 39.0880618"></polygon>
            <path d="M89.2965944,40.4948596 C89.0458355,40.4946455 88.797521,40.445986 88.5655315,40.3516011 C88.3476172,40.2669283 88.1487522,40.1403403 87.9803922,39.9791292 C87.8143652,39.8159827 87.6836013,39.6210063 87.5960784,39.4060955 C87.4083143,38.9541534 87.4083143,38.4469421 87.5960784,37.995 C87.683673,37.7801268 87.8144278,37.5851639 87.9803922,37.4219663 C88.1490805,37.2611672 88.3478583,37.1346347 88.5655315,37.0494944 C89.0342825,36.8683029 89.554572,36.8683029 90.023323,37.0494944 C90.4612493,37.21746 90.8095502,37.5576332 90.9855521,37.9892697 C91.1717746,38.4425048 91.1717746,38.9499952 90.9855521,39.4032303 C90.8094034,39.8347697 90.4611535,40.174893 90.023323,40.3430056 C89.7933331,40.4399667 89.5464874,40.4915465 89.2965944,40.4948596 Z M88.5250774,39.4920506 C88.726976,39.6985837 89.0065843,39.8122859 89.2965944,39.8057865 C89.58497,39.8134097 89.8633225,39.7006183 90.0637771,39.4949157 C90.4744824,39.0584732 90.4744824,38.3813021 90.0637771,37.9448596 C89.8631189,37.7394553 89.5849046,37.6267199 89.2965944,37.6339888 C89.0068332,37.6272899 88.7273246,37.7404326 88.5250774,37.9462921 C88.1093448,38.378543 88.1093448,39.0583671 88.5250774,39.490618 L88.5250774,39.4920506 Z" id="Shape" fill="#FDFDFD" fill-rule="nonzero"></path>
            <polygon id="Path" fill="#FDFDFD" points="93.752322 37.0036517 94.5671827 37.0036517 93.2668731 40.4203652 92.5618163 40.4203652 91.2138287 37.0036517 92.0388029 37.0036517 92.905676 39.4204213"></polygon>
            <path d="M96.9900929,40.4203652 L96.750258,39.7714045 L95.377709,39.7714045 L95.1422085,40.4203652 L94.3504644,40.4203652 L95.7027864,37.0036517 L96.4049536,37.0036517 L97.7977296,40.4203652 L96.9900929,40.4203652 Z M96.0596491,37.9061798 L95.6103199,39.1310393 L96.5147575,39.1310393 L96.0596491,37.9061798 Z" id="Shape" fill="#FDFDFD" fill-rule="nonzero"></path>
            <polygon id="Path" fill="#FDFDFD" points="100.279876 37.0036517 100.279876 37.6898596 99.3147575 37.6898596 99.3147575 40.4203652 98.5692466 40.4203652 98.5692466 37.6898596 97.6127967 37.6898596 97.6127967 37.0036517"></polygon>
            <polygon id="Path" fill="#FDFDFD" points="100.779773 40.4203652 100.779773 37.0036517 101.525284 37.0036517 101.525284 40.4203652"></polygon>
            <path d="M103.951084,40.4948596 C103.700325,40.4946455 103.45201,40.445986 103.220021,40.3516011 C103.004078,40.2700109 102.806291,40.1473772 102.637771,39.9905899 C102.471744,39.8274434 102.34098,39.6324669 102.253457,39.4175562 C102.065693,38.9656141 102.065693,38.4584028 102.253457,38.0064607 C102.341052,37.7915874 102.471807,37.5966245 102.637771,37.433427 C102.806459,37.2726278 103.005237,37.1460954 103.22291,37.0609551 C103.691661,36.8797636 104.211951,36.8797636 104.680702,37.0609551 C105.118628,37.2289207 105.466929,37.5690939 105.642931,38.0007303 C105.829153,38.4539655 105.829153,38.9614559 105.642931,39.414691 C105.466782,39.8462303 105.118532,40.1863537 104.680702,40.3544663 C104.449017,40.4478638 104.201183,40.4955521 103.951084,40.4948596 Z M103.179567,39.4920506 C103.381465,39.6985837 103.661073,39.8122859 103.951084,39.8057865 C104.239459,39.8134097 104.517812,39.7006183 104.718266,39.4949157 C105.128972,39.0584732 105.128972,38.3813021 104.718266,37.9448596 C104.517608,37.7394553 104.239394,37.6267199 103.951084,37.6339888 C103.661322,37.6272899 103.381814,37.7404326 103.179567,37.9462921 C102.763834,38.378543 102.763834,39.0583671 103.179567,39.490618 L103.179567,39.4920506 Z" id="Shape" fill="#FDFDFD" fill-rule="nonzero"></path>
            <polygon id="Path" fill="#FDFDFD" points="108.5484 37.0036517 109.283798 37.0036517 109.283798 40.4203652 108.661094 40.4203652 107.093498 38.2858146 107.093498 40.4203652 106.362436 40.4203652 106.362436 37.0036517 107.035707 37.0036517 108.5484 39.0880618"></polygon>
            <polygon id="Path" fill="#FDFDFD" points="113.29742 37.6984551 111.985552 37.6984551 111.985552 38.4491292 113.170279 38.4491292 113.170279 39.1181461 111.985552 39.1181461 111.985552 40.4203652 111.240041 40.4203652 111.240041 37.0036517 113.29742 37.0036517"></polygon>
            <path d="M115.474716,40.4948596 C115.223957,40.4946455 114.975643,40.445986 114.743653,40.3516011 C114.525739,40.2669283 114.326874,40.1403403 114.158514,39.9791292 C113.992487,39.8159827 113.861723,39.6210063 113.7742,39.4060955 C113.586436,38.9541534 113.586436,38.4469421 113.7742,37.995 C113.861795,37.7801268 113.99255,37.5851639 114.158514,37.4219663 C114.327202,37.2611672 114.52598,37.1346347 114.743653,37.0494944 C115.212404,36.8683029 115.732694,36.8683029 116.201445,37.0494944 C116.639371,37.21746 116.987672,37.5576332 117.163674,37.9892697 C117.349896,38.4425048 117.349896,38.9499952 117.163674,39.4032303 C116.987525,39.8347697 116.639275,40.174893 116.201445,40.3430056 C115.971455,40.4399667 115.724609,40.4915465 115.474716,40.4948596 Z M114.703199,39.4920506 C114.905098,39.6985837 115.184706,39.8122859 115.474716,39.8057865 C115.763092,39.8134097 116.041444,39.7006183 116.241899,39.4949157 C116.652604,39.0584732 116.652604,38.3813021 116.241899,37.9448596 C116.041241,37.7394553 115.763026,37.6267199 115.474716,37.6339888 C115.184955,37.6272899 114.905446,37.7404326 114.703199,37.9462921 C114.287467,38.378543 114.287467,39.0583671 114.703199,39.490618 L114.703199,39.4920506 Z" id="Shape" fill="#FDFDFD" fill-rule="nonzero"></path>
            <path d="M119.78452,40.4203652 L119.108359,39.2556742 L118.630134,39.2556742 L118.630134,40.4203652 L117.884623,40.4203652 L117.884623,37.0036517 L119.275955,37.0036517 C119.596468,36.9919589 119.908458,37.1074511 120.142828,37.3245506 C120.369292,37.5334022 120.49406,37.8288544 120.485243,38.1353933 C120.488695,38.3450388 120.430455,38.5511379 120.317647,38.7284831 C120.205167,38.9020113 120.046041,39.0409385 119.858204,39.1296067 L120.619608,40.4189326 L119.78452,40.4203652 Z M118.628689,37.6869944 L118.628689,38.5708989 L119.225387,38.5708989 C119.358701,38.5781496 119.489678,38.5340038 119.590918,38.4476966 C119.680378,38.3662148 119.72946,38.2500393 119.725284,38.1296629 C119.729304,38.0088983 119.680282,37.8923453 119.590918,37.8101966 C119.489678,37.7238895 119.358701,37.6797436 119.225387,37.6869944 L118.628689,37.6869944 Z" id="Shape" fill="#FDFDFD" fill-rule="nonzero"></path>
            <path d="M124.477193,40.4203652 L124.237358,39.7714045 L122.864809,39.7714045 L122.627864,40.4203652 L121.83612,40.4203652 L123.186997,37.0036517 L123.889164,37.0036517 L125.28483,40.4203652 L124.477193,40.4203652 Z M123.546749,37.9061798 L123.095975,39.1310393 L124.000413,39.1310393 L123.546749,37.9061798 Z" id="Shape" fill="#FDFDFD" fill-rule="nonzero"></path>
            <polygon id="Path" fill="#FDFDFD" points="127.77709 37.6984551 126.465222 37.6984551 126.465222 38.4491292 127.649948 38.4491292 127.649948 39.1181461 126.465222 39.1181461 126.465222 40.4203652 125.719711 40.4203652 125.719711 37.0036517 127.77709 37.0036517"></polygon>
            <path d="M130.249123,40.4203652 L129.577296,39.2556742 L129.099071,39.2556742 L129.099071,40.4203652 L128.355005,40.4203652 L128.355005,37.0036517 L129.746336,37.0036517 C130.06685,36.9919589 130.378839,37.1074511 130.613209,37.3245506 C130.837762,37.5317326 130.962356,37.8241656 130.955624,38.1282303 C130.959077,38.3378759 130.900837,38.543975 130.788029,38.7213202 C130.675548,38.8948484 130.516423,39.0337756 130.328586,39.1224438 L131.08999,40.4117697 L130.249123,40.4203652 Z M129.093292,37.6869944 L129.093292,38.5708989 L129.68999,38.5708989 C129.823303,38.5781496 129.954281,38.5340038 130.055521,38.4476966 C130.14498,38.3662148 130.194063,38.2500393 130.189886,38.1296629 C130.193906,38.0088983 130.144885,37.8923453 130.055521,37.8101966 C129.954281,37.7238895 129.823303,37.6797436 129.68999,37.6869944 L129.093292,37.6869944 Z" id="Shape" fill="#FDFDFD" fill-rule="nonzero"></path>
            <polygon id="Path" fill="#FDFDFD" points="131.604334 40.4203652 131.604334 37.0036517 132.349845 37.0036517 132.349845 40.4203652"></polygon>
            <path d="M134.712074,40.4948596 C134.470699,40.4942661 134.23191,40.4455474 134.009907,40.3516011 C133.797713,40.2666002 133.605061,40.1399001 133.44355,39.9791292 C133.282758,39.8168218 133.156058,39.6244814 133.070795,39.4132584 C132.978739,39.1905536 132.932089,38.9519726 132.93354,38.7112921 C132.931822,38.4687307 132.978467,38.228224 133.070795,38.0035955 C133.155211,37.7898209 133.281956,37.5949773 133.44355,37.4305618 C133.605387,37.270186 133.797953,37.1435425 134.009907,37.0580899 C134.231898,36.9641061 134.470695,36.9153859 134.712074,36.9148315 C135.53005,36.9001744 136.237485,37.4771321 136.380805,38.2757865 L135.633849,38.2757865 C135.569565,38.0833398 135.44633,37.9155738 135.281321,37.7958708 C135.115505,37.6783486 134.915854,37.6170499 134.712074,37.6210955 C134.435561,37.6151901 134.169818,37.7273727 133.982456,37.9291011 C133.787293,38.1381088 133.683419,38.4151699 133.693498,38.6998315 C133.683144,38.9832535 133.787135,39.2590807 133.982456,39.466264 C134.170296,39.6671543 134.435857,39.7787383 134.712074,39.7728371 C134.923582,39.7776535 135.130447,39.7109648 135.298658,39.583736 C135.466809,39.4537672 135.587139,39.2725312 135.641073,39.0680056 L136.392363,39.0680056 C136.328591,39.4662778 136.123682,39.8289505 135.814448,40.0908708 C135.509736,40.3556025 135.117179,40.4994636 134.712074,40.4948596 Z" id="Path" fill="#FDFDFD"></path>
            <path d="M139.108566,40.4203652 L138.868731,39.7714045 L137.496182,39.7714045 L137.260681,40.4203652 L136.468937,40.4203652 L137.819814,37.0036517 L138.521981,37.0036517 L139.913313,40.4203652 L139.108566,40.4203652 Z M138.179567,37.9061798 L137.730237,39.1281742 L138.634675,39.1281742 L138.179567,37.9061798 Z" id="Shape" fill="#FDFDFD" fill-rule="nonzero"></path>
            <path d="M35.0837977,46.9257303 C43.3739938,36.9506461 56.9001032,33.0296629 47.4194014,15.9819101 C41.0897833,4.59716292 25.4441692,-5.47247191 16.2090815,3.74620787 C4.32714138,15.6094382 -3.38658411,22.2738202 1.8247678,34.1972191 C7.03611971,46.120618 26.7473684,56.9552528 35.0837977,46.9257303 Z" id="cercle" fill="#E55831" opacity="0.9"></path>
            <path d="M2.59917441,18.3929494 C7.65593395,30.3077528 -2.30154799,43.6322191 16.6858617,48.5961236 C29.3595459,51.909691 54.9106295,44.3442135 49.2542828,30.4481461 C42.9434469,14.9447191 46.3444788,10.3690449 34.8338493,3.29780899 C23.6930857,-3.54707865 -3.00804954,5.17019663 2.59917441,18.3929494 Z" id="cercle-2" fill="#FCC657" opacity="0.9"></path>
            <path d="M48.5420021,23.9456461 C42.0895769,12.7141854 43.2063983,-1.20766854 23.7609907,1.50564607 C10.7824561,3.31643258 -4.27657379,14.2427528 1.12982456,26.0816292 C8.08359133,41.3114326 11.6160991,50.8309551 24.7145511,50.2435955 C37.8130031,49.656236 55.0291022,35.241573 48.5420021,23.9456461 Z" id="cercle-3" fill="#0FB8DA" opacity="0.9"></path>
            <path d="M49.0722394,25.568764 C43.1384933,14.0608146 38.4472652,2.03856742 25.3415893,2.03856742 C12.2359133,2.03856742 -0.915995872,12.8173315 1.61093911,25.568764 C4.44850361,39.8946067 12.2359133,49.0989607 25.3415893,49.0989607 C38.4472652,49.0989607 55.0363261,37.1397472 49.0722394,25.568764 Z" id="cercle-4" fill="#FDFDFD"></path>
            <path d="M30.1093911,25.2750843 C30.0767666,25.4179871 30.0862959,25.5671797 30.1368421,25.7048596 L31.2796698,28.6087079 C31.6435894,29.5387162 31.1803893,30.5854047 30.2437564,30.9495506 L29.3985552,31.2761798 L29.3985552,33.5783427 C29.3978185,34.1489088 29.2062567,34.7031213 28.85387,35.1541854 L28.9665635,35.8217697 C28.976677,35.8532865 28.9839009,35.879073 28.9911249,35.9062921 C28.9983488,35.9335112 29.0026832,35.9650281 29.0055728,35.9850843 C29.0084623,36.0051404 29.0214654,36.023764 29.0272446,36.0423876 L29.0344685,36.0638764 C29.18818,36.4956647 29.6456802,36.7428776 30.0949432,36.6369101 L37.9964912,34.6685393 L38.0831785,34.6370225 C38.1110973,34.628849 38.1385831,34.6192863 38.1655315,34.6083708 C38.1900929,34.5983427 38.2132095,34.5840169 38.2377709,34.5711236 C38.2666186,34.5559621 38.2945943,34.5392228 38.3215686,34.5209831 C38.3410937,34.5071308 38.3599,34.4923085 38.3779154,34.476573 C38.4068298,34.4533804 38.4343292,34.4285051 38.4602683,34.4020787 L38.4906089,34.3676966 C38.5194781,34.3341774 38.5460265,34.2987594 38.5700722,34.2616854 L38.5902993,34.2273034 C38.6131091,34.1877548 38.6329096,34.1465729 38.6495356,34.1041011 C38.669559,34.0495829 38.6850223,33.9935228 38.6957688,33.9364888 C38.704579,33.8791382 38.7084458,33.8211476 38.7073271,33.7631461 L38.7073271,33.6642978 L38.3446852,31.5970787 C38.176474,30.5738876 38.4560424,29.5281091 39.1133127,28.721882 C40.3887644,27.1581615 41.0812302,25.2060858 41.0738906,23.1949719 C41.0736296,20.6817688 39.9944274,18.2875009 38.1061927,16.6109748 C36.2179579,14.9344488 33.6992432,14.1341979 31.1799794,14.4103652 C29.7533398,14.5645304 28.3866124,15.0633163 27.1995872,15.8630056 C28.8622201,17.4667898 29.931115,19.5794559 30.2336429,21.8598034 C30.3821109,22.9972506 30.3401289,24.1512009 30.1093911,25.2750843 Z" id="Path" fill="#243160"></path>
            <ellipse id="Oval" fill="#F3B703" cx="26.0625387" cy="22.915618" rx="1.1630547" ry="1.15323034"></ellipse>
            <path d="M21.0852425,12.970618 C16.9143051,12.5142294 12.8770411,14.5950923 10.8573123,18.2422378 C8.83758357,21.8893833 9.23347971,26.383957 11.8602683,29.6287079 C12.257072,30.1128851 12.4268244,30.7418647 12.326935,31.3578371 L11.9801858,33.4092978 C11.9674933,33.4918072 11.9607339,33.5751072 11.9599587,33.6585674 L11.9599587,33.7230337 C11.9561903,33.8571495 11.9639236,33.9913402 11.9830753,34.1241573 L11.9917441,34.1814607 C12.0146365,34.3124708 12.0484645,34.441369 12.0928793,34.5668258 L12.1145511,34.6241292 C12.157257,34.7348181 12.2084561,34.8420985 12.2676987,34.9450281 C12.2850361,34.9751124 12.3023736,35.0051966 12.3226006,35.0381461 C12.3785439,35.125705 12.4403258,35.209459 12.5075335,35.2888483 C12.5393189,35.3275281 12.5711042,35.3647753 12.6101135,35.4048876 C12.6757737,35.4722489 12.7452352,35.5358624 12.8181631,35.5954213 C12.8658411,35.6341011 12.9149639,35.6727809 12.9626419,35.7071629 C13.0327766,35.7556082 13.1056135,35.800089 13.180805,35.8403933 C13.2443756,35.8747753 13.3079463,35.9077247 13.3772962,35.937809 C13.446646,35.9678933 13.521775,35.9951124 13.5882353,36.0151685 C13.638487,36.0359212 13.6901445,36.0531545 13.7428277,36.0667416 L21.6732714,38.0422753 C21.8575311,38.0880652 22.0467804,38.1111607 22.2367389,38.1110393 C23.2362267,38.1072852 24.1268211,37.4846139 24.4660475,36.5523876 L24.4790506,36.516573 C24.5021733,36.4611059 24.5214813,36.4041497 24.5368421,36.3460955 C24.5453753,36.3126425 24.5516499,36.2786627 24.5556244,36.244382 L24.5686275,36.1971067 C24.049355,36.0468457 23.5864288,35.7478126 23.2379773,35.3375562 L23.1541796,35.8375281 C23.1455108,35.8647472 23.1368421,35.8948315 23.1223942,35.9564326 C23.1223942,35.972191 23.1223942,35.9865169 23.1151703,36.0037079 L23.1007224,36.0409551 L23.1007224,36.0509831 L23.1007224,36.0595787 L23.1007224,36.0782022 C22.9469564,36.510658 22.4885382,36.75803 22.0388029,36.651236 L14.1372549,34.6828652 C14.1098039,34.6714045 14.0809082,34.6613764 14.0491228,34.6513483 C14.0173375,34.6413202 13.9942208,34.6341573 13.9696594,34.6241292 C13.945098,34.6141011 13.9205366,34.5997753 13.8930857,34.5854494 C13.8642595,34.5702503 13.8362858,34.5535123 13.8092879,34.535309 C13.7905057,34.5224157 13.7731682,34.5080899 13.7587203,34.4951966 C13.7304049,34.4723498 13.7033937,34.4479582 13.6778122,34.4221348 L13.6402477,34.3777247 C13.6140323,34.3468643 13.5899,34.3143217 13.5680083,34.280309 L13.5463364,34.2430618 C13.5247694,34.2062685 13.5059372,34.1679647 13.4899897,34.1284551 L13.4784314,34.094073 C13.4600542,34.0400567 13.4469903,33.9844042 13.4394221,33.9278933 C13.4328233,33.8833162 13.429924,33.8382775 13.4307534,33.7932303 L13.7818369,31.6099719 C13.9502362,30.5867718 13.6706477,29.5409179 13.0132095,28.7347753 C11.729738,27.1695625 11.0319283,25.2122571 11.0381837,23.1949719 C11.0384447,20.6817688 12.1176469,18.2875009 14.0058816,16.6109748 C15.8941164,14.9344488 18.4128311,14.1341979 20.9320949,14.4103652 C22.3123261,14.5614053 23.6365444,15.0357469 24.7954592,15.7942416 C24.8330237,15.8185955 24.8749226,15.8386517 24.9124871,15.8630056 C25.1277606,15.6538483 25.3545924,15.4575843 25.5857585,15.2684831 C25.7417957,15.1424157 25.8978328,15.0163483 26.0596491,14.8974438 C24.6025714,13.8302215 22.8860654,13.1653366 21.0852425,12.970618 Z" id="Path" fill="#F3B703"></path>
            <path d="M27.9349845,33.5812079 L27.9349845,30.286264 L29.7091847,29.6000562 C29.8947633,29.5268831 29.9867594,29.3195672 29.9157895,29.1344663 L28.7729618,26.2377809 C28.6197841,25.8393659 28.5861648,25.4055088 28.676161,24.9885674 C28.876018,24.0204229 28.9131193,23.0261814 28.7859649,22.0460393 C28.5212106,20.029365 27.5592124,18.1661752 26.0639835,16.7741292 C24.5683371,18.1640609 23.6048687,20.0251065 23.3376677,22.040309 C23.2105675,23.0199756 23.247669,24.0137373 23.4474716,24.9814045 C23.5373847,25.3983514 23.5037672,25.8321849 23.3506708,26.230618 L22.2078431,29.1358989 C22.1368733,29.3209998 22.2288693,29.5283157 22.4144479,29.6014888 L24.1857585,30.2891292 L24.1857585,33.584073 C24.1857585,34.2170286 24.7032416,34.7301404 25.3415893,34.7301404 L26.7863777,34.7301404 C27.4230312,34.7261969 27.9365886,34.2124938 27.9349845,33.5812079 Z M26.0567595,24.0702809 C25.4144222,24.0702809 24.8937049,23.5539621 24.8937049,22.9170506 C24.8937049,22.280139 25.4144222,21.7638202 26.0567595,21.7638202 C26.6990969,21.7638202 27.2198142,22.280139 27.2198142,22.9170506 C27.2190328,23.5506164 26.7029349,24.0649136 26.0639835,24.0688483 L26.0567595,24.0702809 Z" id="rocket" fill="#243160" fill-rule="nonzero"></path>
        </g>
    </g>
</svg>