<?xml version="1.0" encoding="UTF-8"?>
<svg width="34px" height="23px" viewBox="0 0 34 23" version="1.1" xmlns="http://www.w3.org/2000/svg" xmlns:xlink="http://www.w3.org/1999/xlink">
    <title>tunisia (1) copy</title>
    <g id="Home-page" stroke="none" stroke-width="1" fill="none" fill-rule="evenodd">
        <g id="tunisia-(1)-copy" fill-rule="nonzero">
            <rect id="Rectangle" fill="#D80027" x="0" y="0.0219804688" width="34" height="22.6669102"></rect>
            <circle id="Oval" fill="#F0F0F0" cx="17" cy="11.3550703" r="6.375"></circle>
            <g id="Group" transform="translate(12.351562, 6.707031)" fill="#D80027">
                <polygon id="Path" points="5.43375781 2.21073047 6.52746875 3.71782031 8.29872266 3.14347266 7.20328516 4.64930078 8.29686328 6.15639063 6.52620703 5.57991797 5.43083594 7.08574609 5.43196484 5.22371484 3.66130859 4.64717578 5.43262891 4.07289453"></polygon>
                <path d="M6.09728906,8.41526562 C4.01678125,8.41526562 2.33026172,6.72874609 2.33026172,4.64823828 C2.33026172,2.56773047 4.01678125,0.881210937 6.09728906,0.881210937 C6.74601172,0.881210937 7.35635156,1.04523437 7.88926172,1.33403516 C7.05327344,0.516574219 5.91008984,0.011953125 4.6484375,0.011953125 C2.08794531,0.011953125 0.0120859375,2.08774609 0.0120859375,4.64830469 C0.0120859375,7.20886328 2.08794531,9.28465625 4.6484375,9.28465625 C5.91008984,9.28465625 7.05333984,8.78003516 7.88926172,7.96257422 C7.35628516,8.25124219 6.74601172,8.41526562 6.09728906,8.41526562 Z" id="Path"></path>
            </g>
        </g>
    </g>
</svg>