<?xml version="1.0" standalone="no"?>
<svg xmlns:xlink="http://www.w3.org/1999/xlink" id="wave" style="transform:rotate(0deg); transition: 0.3s" viewBox="0 0 1440 240" version="1.1" xmlns="http://www.w3.org/2000/svg"><defs><linearGradient id="sw-gradient-0" x1="0" x2="0" y1="1" y2="0"><stop stop-color="rgba(243, 106, 62, 1)" offset="0%"/><stop stop-color="rgba(255, 179, 11, 1)" offset="100%"/></linearGradient></defs><path style="transform:translate(0, 0px); opacity:1" fill="url(#sw-gradient-0)" d="M0,0L120,28C240,56,480,112,720,120C960,128,1200,88,1440,60C1680,32,1920,16,2160,28C2400,40,2640,80,2880,112C3120,144,3360,168,3600,172C3840,176,4080,160,4320,164C4560,168,4800,192,5040,184C5280,176,5520,136,5760,136C6000,136,6240,176,6480,168C6720,160,6960,104,7200,88C7440,72,7680,96,7920,124C8160,152,8400,184,8640,188C8880,192,9120,168,9360,136C9600,104,9840,64,10080,72C10320,80,10560,136,10800,152C11040,168,11280,144,11520,132C11760,120,12000,120,12240,120C12480,120,12720,120,12960,112C13200,104,13440,88,13680,104C13920,120,14160,168,14400,192C14640,216,14880,216,15120,208C15360,200,15600,184,15840,184C16080,184,16320,200,16560,188C16800,176,17040,136,17160,116L17280,96L17280,240L17160,240C17040,240,16800,240,16560,240C16320,240,16080,240,15840,240C15600,240,15360,240,15120,240C14880,240,14640,240,14400,240C14160,240,13920,240,13680,240C13440,240,13200,240,12960,240C12720,240,12480,240,12240,240C12000,240,11760,240,11520,240C11280,240,11040,240,10800,240C10560,240,10320,240,10080,240C9840,240,9600,240,9360,240C9120,240,8880,240,8640,240C8400,240,8160,240,7920,240C7680,240,7440,240,7200,240C6960,240,6720,240,6480,240C6240,240,6000,240,5760,240C5520,240,5280,240,5040,240C4800,240,4560,240,4320,240C4080,240,3840,240,3600,240C3360,240,3120,240,2880,240C2640,240,2400,240,2160,240C1920,240,1680,240,1440,240C1200,240,960,240,720,240C480,240,240,240,120,240L0,240Z"/></svg>